<svg xmlns="http://www.w3.org/2000/svg" viewBox="0 0 700 601">
<path fill="none" stroke="#0059a9" stroke-width="1" stroke-opacity="0.8" stroke-linecap="round" stroke-linejoin="round" d="M408 293L407 293M407 293L408 294M436 368L435 368M435 368L435 369M435 369L435 369M408 294L408 294M408 294L408 293M408 293L408 293M413 257L413 256M413 256L413 256M413 256L413 257M446 336L446 336M383 340L383 340M383 340L383 340M383 340L383 339M403 379L402 379M402 379L402 379M402 379L402 379M402 380L402 380M402 380L402 380M383 339L383 339M383 339L383 339M383 339L382 339M435 369L436 369M436 369L436 368M409 304L409 304M409 304L409 304M409 304L409 304M409 304L409 304M409 304L409 304M373 310L373 310M376 297L376 297M376 297L376 298M376 298L376 298M376 298L376 298M376 297L376 297M376 297L376 297M372 310L372 310M372 310L372 310M372 310L372 310M372 310L372 310M372 310L373 310M446 336L446 336M446 336L446 336M382 339L383 340M402 379L402 380M440 369L440 369M436 368L436 368M436 368L436 368M373 310L372 310M312 360L311 360M311 360L311 360M311 360L311 360M311 360L311 360M311 360L311 360M311 360L311 361M311 361L311 361M311 361L312 360M312 360L312 360M408 293L408 293M379 286L379 286M470 405L469 405M470 405L470 405M441 300L441 300M441 300L441 300M441 300L440 301L440 301M441 301L441 300M380 286L380 286M380 286L379 285M379 285L379 286M461 145L461 145M461 145L461 145M461 145L461 145M461 145L461 145M461 145L461 145M351 362L351 363M127 377L127 377M127 377L127 376M127 376L127 376M127 376L127 376M127 376L127 376M127 376L127 377M127 377L127 377M447 412L447 412M447 412L446 412M446 412L447 412M447 412L447 412M447 412L447 412M447 412L447 412M381 260L382 259L383 259M436 358L436 358M383 259L385 259L386 259L388 259L389 258L390 258L391 258L393 257L394 257L396 257L396 257M396 257L397 256L398 255L399 254L400 253L401 253L402 252L403 254L403 255L404 256L405 256M405 256L404 257L404 258L403 259L403 260L403 261L402 262L402 263L402 264L402 265L402 266L402 267L402 268L402 269L402 270L402 271L402 272L403 273L403 275L403 276L404 277L404 279L405 281L405 282L405 285L406 286L406 287L407 289L407 291L407 292L407 293L408 293M405 256L405 257L405 257M404 257L405 257M408 294L408 295M408 295L408 296L408 297M408 297L410 301L410 304L411 306L411 307L411 308L412 309M412 309L412 310L412 312L412 313M412 313L413 314L413 314M413 314L413 315M414 320L414 321L414 322M413 315L413 315M413 315L413 317M413 317L414 319L414 320L414 320M414 322L415 322M415 322L415 323L415 323M415 323L415 324M415 324L416 325L417 325L418 326L418 327M418 327L419 328L419 328M419 328L419 328M419 328L419 328M419 328L420 329L420 329M420 329L421 330L422 330M422 330L422 331L425 333L425 334L425 334M425 334L427 336L428 337L428 337L429 338L429 338M429 338L430 339M430 339L430 339M430 339L430 341L429 342L429 343L429 344M429 344L428 345L428 345M428 345L428 346L428 347L428 348M428 348L428 348M428 348L428 349L429 350M429 349L428 348L428 348M429 350L429 351M429 351L429 351M429 351L429 351M429 351L429 351M429 351L429 351M429 351L429 351M429 351L430 352L431 353L432 353L433 353M433 353L434 352L434 352L436 352L436 352M436 352L436 353L436 354L436 355L436 356M436 356L435 356M435 356L436 357L436 358M436 358L436 358L437 359M437 359L437 360L437 361L438 362L438 362L439 363L439 364M439 364L438 364L437 366L436 367M436 367L436 368L436 368M436 368L436 368M435 369L436 370L436 371M436 371L436 372L436 373L436 374L436 374M436 374L437 377L437 378L437 379L437 380L437 380M437 381L437 380M436 371L436 370M436 370L436 369L436 369L436 368L436 367M436 367L437 366L438 366L438 365M438 365L439 364L439 364M439 364L439 364M436 358L436 357L436 356L436 356M433 353L432 352L431 352L430 352L429 351M429 351L429 351M429 351L429 349M428 348L428 348M428 348L428 347L428 346L428 345M430 338L430 339M430 339L430 339M430 339L430 339M430 339L430 339M430 339L429 338M420 329L420 328L419 328M419 328L419 328M419 328L419 327L418 327M415 323L415 322L415 322M415 322L415 322M415 322L414 321L414 320M413 315L413 314L413 314M413 315L413 315M413 314L413 313L412 313M408 297L408 296L408 295L408 294L408 294M408 293L407 291L407 291L407 289L406 288L406 287M406 288L406 287M406 287L406 287M414 285L415 284M382 259L382 259M391 288L391 287L392 286L392 285L393 283L393 282L393 280L393 279L393 278L393 277L394 277L394 275L394 274L394 273L394 272L394 272L394 270L394 270L395 269L395 268L396 266L396 265L396 263L396 262L396 261L396 260L396 259L396 258L396 257L396 257M412 313L412 313M437 381L437 380M413 315L413 316L413 317M437 381L437 381M437 380L437 380M409 243L409 243L407 242L406 242L405 243L403 243L401 244L400 244M409 243L409 244L409 245L408 246L407 248L407 249L406 250L406 252L406 253L405 255L405 256L405 256M428 349L428 350M368 358L368 358L368 357M428 350L429 350M429 351L429 351M429 351L429 351M429 351L428 352L427 352L426 353L426 353M426 353L425 353L425 354L424 354L422 355L422 355M422 355L422 355M422 355L422 355M422 355L422 356M422 356L421 356L419 357L418 358L417 359L416 359L416 360L414 360L413 361L412 361L412 361M405 361L406 361L407 361L408 361L410 361L411 361L412 361M412 361L411 361L410 361L408 361L407 361L406 361L405 361M412 361L413 361L414 361L414 361L415 360L416 360M405 361L402 360L401 361M394 362L396 362L397 361L398 361L399 361L400 361L401 361M401 361L400 361L399 361L398 361L397 361L396 361L394 362L394 362M401 361L402 361L404 361L404 361L405 361M394 362L394 362M394 362L393 362L392 362L391 363L389 363L388 363L386 364L386 364M386 364L383 364L382 364L382 364M386 364L388 364L388 363L389 363L390 363L391 363L392 363L393 362L394 362M382 364L381 362L381 361L381 361M377 354L378 355L378 356L379 357L380 359L380 360L381 361L381 362L381 364L382 364M377 354L377 353M377 353L377 353M377 353L377 353M377 353L376 353M376 353L375 354L375 354M375 354L373 355L370 356L370 357M370 357L368 357L368 358L367 358M375 354L376 354L376 353M367 358L368 360L370 363L371 364L371 365L371 366L372 367M372 367L371 365L370 363L369 361L369 360L368 359L368 358M364 370L369 368L370 367L371 367L372 367M364 370L362 366L361 364L361 362L360 361L360 361M360 361L360 361M360 361L360 361M360 361L359 362L357 363L356 363L355 363M352 363L354 363L355 363L355 363L356 363M355 363L355 363M355 363L355 363M355 363L354 363M354 363L354 363M354 363L353 363L351 362L351 362M352 363L351 363M352 363L352 363M352 363L352 363M356 363L358 362L359 362L360 361L360 361M360 361L360 362L361 363L362 365L362 366L364 370L364 370M364 370L364 370M364 370L364 370M364 370L366 369L369 368L371 367L372 367M376 353L377 354M382 364L382 364M382 364L383 364L386 364M394 362L394 362M416 360L417 360L417 359L418 358L419 358L420 357L420 357L421 356L422 356M422 356L422 356M422 356L422 356M422 356L422 356M422 356L422 356M422 356L422 355M422 355L424 355L425 354L426 353L426 353M429 351L429 351M383 330L383 331L384 332L384 333L385 334L385 336L386 337L386 338L386 338M386 338L389 336L389 336M389 336L390 336L392 334L393 333L394 332L394 332M394 332L395 333L396 334L397 334M397 334L397 334M397 334L397 335L399 337L399 337M400 338L401 340L402 341L402 341L402 342M399 337L400 338M402 342L402 342M402 342L403 342L405 341L405 341M408 341L410 341L411 340L412 340L413 339L415 339L415 339M405 341L406 341L407 341L408 341M415 339L415 339M415 339L415 339M415 339L416 338L417 338L418 338M418 337L417 338L416 338L415 338M420 341L420 341L419 340L419 340L418 339L418 338L418 337M420 341L422 342L424 342L425 343L427 343L428 344L429 344M429 344L429 344M436 352L437 352L438 352L440 352L442 351L443 351L443 351L444 351L445 351M445 351L446 351L447 351M447 351L447 351M451 350L453 350L454 350M451 350L447 351M454 350L455 350L456 350L457 350L458 350M458 350L459 351M459 351L459 351M459 351L460 351M460 351L461 352L462 353L463 354L464 354L465 354L466 354L467 354L468 355L469 355L470 356L472 357M472 357L473 358L473 358M473 358L474 360L475 360L476 361M474 360L475 361L476 362L477 363L478 363M483 371L483 372L483 373M484 374L483 373L483 372L483 371L482 370L481 369L481 368L480 367L480 366L479 365L479 364L478 363L477 362L476 361M483 373L484 374L484 374L485 375L486 376L486 376M492 386L492 386L491 385L490 383L490 382L489 381L489 381L488 380L487 377L486 377L486 376L485 375L485 375L484 374L484 374M492 386L492 386M492 387L492 387M492 387L492 386M483 371L483 371M460 351L459 351M459 351L459 350M459 350L458 350M415 338L415 338M415 339L414 339L412 340L411 340L410 340L408 341L408 341M405 341L404 341L403 342L403 342M415 338L415 339M403 342L401 340L399 338L397 335L397 335L397 334M397 334L397 334M397 334L396 333L395 332L395 332M394 332L395 332M389 336L389 336M389 336L388 335L388 335L387 333L387 332L386 331L385 329L385 328L385 328M385 328L383 329L383 329M483 352L482 352L481 353L480 353M477 361L476 361L476 361M459 350L459 351M476 354L478 353L479 353L480 353M476 354L476 355L476 356L476 358L477 359L477 360L477 360L477 361M429 351L429 351M422 355L421 353L421 352L420 351L420 350L419 349M419 349L419 349M415 339L415 338M419 349L419 348M419 348L418 346L416 341L416 340L416 340M416 340L416 339L415 339M415 338L415 338L413 334L413 332M413 332L413 332M413 332L413 332M413 332L413 332M413 332L413 332M413 332L413 331M413 331L413 331M413 331L412 330M412 330L412 330M412 330L412 330M412 330L412 330M412 330L412 330M412 330L411 330M411 330L411 330M411 330L411 330M411 330L412 330M412 330L412 331M412 331L412 331M501 410L502 412L502 413M502 413L503 414L503 415L505 416M505 416L506 415L508 414L508 414L509 414L509 413L510 413M510 413L509 412L509 411L508 411L507 409L507 409L506 407L505 407L505 406L504 405L504 404L504 403L503 402L503 401L502 400L502 399L501 398L501 397L500 396L500 396L499 395L498 394L498 393L497 392L495 391L495 390M494 390L495 390M494 390L494 389L493 388L492 387L492 386M408 385L408 384M408 384L411 383L413 382L415 382L415 381L418 381L418 380L422 379L423 378L428 376L429 376L430 376M430 376L431 375L431 375M431 375L432 375L433 374L434 374L435 374L436 374L436 374M436 352L436 352M412 332L413 332M413 332L414 337L415 338L415 339M415 339L416 340L416 341L418 346M418 346L419 348L419 349L419 349M419 349L420 350L420 352L421 353L422 355L422 355M422 356L422 355M431 375L430 375L430 376M429 376L428 376M430 376L430 376M430 376L429 376M428 376L424 378L424 378L423 378L422 379L419 380L417 381L416 381L415 382L413 382L411 383L409 384L408 384L408 384M408 384L407 384M378 327L378 326L379 325L380 323L380 322L381 321L382 320L382 319L382 319M382 319L383 319M413 256L413 256M383 319L385 321L386 322L387 323L387 324L388 325M388 325L389 326L390 327L391 328L392 329L393 330L394 331L394 332M394 332L394 332M402 342L403 343L404 343M404 349L404 351L404 351M404 343L404 344L404 345L404 349M404 351L405 351L407 351L408 351L409 351L410 350L412 350L413 350L414 350L415 350L417 350L418 349L419 349L419 349M419 349L419 349M422 355L422 356M430 338L431 337L431 336L431 335L431 333L431 331L431 330L431 330L431 329L431 328L431 327L430 326L430 325L430 324L430 323M430 323L429 322L429 321M429 321L429 320M429 320L429 320M429 320L429 320M429 320L428 318L428 317M422 302L421 300L420 297L419 295L419 295M425 309L426 311L427 312L427 313L427 313L427 314L428 315L428 316L428 317L428 318L429 319M424 306L423 304L422 302L421 300L421 300L420 298L420 298L419 296L419 295M424 306L425 309M419 295L418 294L418 292L417 291L417 291M417 291L417 290L417 289L416 288L415 286L415 285L415 284L414 283L414 282L414 281L413 280L413 280L413 279L413 277L413 276L413 274L413 273L413 272L413 271L413 270L413 268L413 267L413 264L413 263L413 262L413 260L413 259L413 258L413 257L413 257M413 257L413 259L413 260L413 261L413 263L413 263L413 265L413 267L413 268L413 269L413 272L413 273L413 274L413 277L413 278L413 280L413 281L414 283L414 284L416 288L416 290L417 291L417 292L418 293L418 294L419 295M429 319L429 320M429 320L429 320M429 320L429 321L429 322L430 323L430 323M430 339L430 339M430 340L430 339M430 339L430 339M429 342L429 342M428 348L428 348M419 349L419 349M405 351L405 350L404 349M404 343L403 342L403 342M395 332L394 332M394 332L394 331L393 330L392 329L392 329L389 326L389 325L388 325M388 325L387 324L386 323L385 321L384 320L383 319M383 319L382 319M382 319L382 319M412 331L412 331M412 331L412 332M412 332L412 332M413 257L413 257M413 257L413 257M413 241L413 243L413 244L413 245L413 247L413 248L413 249L413 251L413 252L413 253L413 254L413 255L413 256M350 390L353 389M353 389L353 390L353 391L354 392L354 392M371 380L371 382L369 385L368 387L367 388L366 388L366 389L365 390L364 390L363 391L362 391L361 391L360 391L358 392L356 392L355 392L354 392L350 393M371 380L373 381L374 381L376 381L378 381L379 382L380 382M380 382L383 382L384 382L385 382L386 382M386 382L386 381L386 379L386 378M387 377L387 377M387 377L386 378L387 378L387 377M454 330L454 330M445 331L446 331L447 330L447 330L448 330L449 331L450 332L451 333L451 333M442 334L442 334M446 336L447 337M438 352L440 352L440 352M448 337L448 337M387 377L386 376L385 373L384 370L384 369L383 368L382 367L382 366L382 365L382 364M447 352L446 352L445 351L445 350L446 349L447 349M447 352L447 350L447 349L446 347L446 346L446 345L446 344L446 343L447 342L447 341M447 341L447 340L448 339L448 338L448 337M448 337L449 337L449 335L450 335L450 334L451 333L452 332L452 331L453 331L454 330M454 330L453 331L452 331L452 332L451 333L450 334L450 334L449 335L448 337L448 337M445 331L444 329L443 329L442 328L442 328M442 328L441 328L441 329L440 329M440 330L441 331L442 332L442 333L442 334L442 335L442 336L442 337M442 337L443 337L444 337L445 336L445 336M445 336L446 336M446 336L446 336M448 337L447 337L446 336L445 336M448 337L448 338L447 339L447 341L447 341M440 352L440 352M416 360L416 360M401 361L401 361M386 364L386 364M381 364L380 364L378 364L377 365L376 365L375 365L373 366L372 367L372 367M381 364L382 364M349 390L350 392L350 393M454 329L454 330M452 328L450 327L449 327L448 326L445 325L444 325L443 324L442 324L441 323L440 323L439 322L438 322L437 321L436 320L435 320M454 329L454 330M382 364L382 364M360 361L360 361M360 361L361 361M365 359L364 359L363 360L361 361M365 359L367 358L367 358M376 353L377 353M377 353L377 353M377 353L376 351L376 350L375 350M374 346L373 345L373 345M375 350L375 349L374 348L374 347L374 346M373 345L373 344L374 344M374 344L375 343L376 343L377 342L379 341L380 341L381 340L382 340L383 340L383 340M383 339L384 339M384 339L385 338L386 338L386 338M389 336L389 336M397 334L397 334M397 334L398 333L399 333L399 333M399 333L400 332L401 332L402 332L403 332L404 332L406 332L407 333L408 333L409 333L410 332L411 332L412 332L412 332M412 332L412 332M422 356L422 357L423 359L423 360L424 362L425 363M425 363L425 363M425 363L425 363M425 363L426 366L426 366M426 366L427 370L428 371L428 371M426 366L426 366M428 371L428 372L429 375L429 375L430 376M429 376L428 376L428 376M408 384L407 383L407 383M407 383L407 381L406 381M406 381L406 380L406 379M406 379L406 379M406 379L406 379M406 379L406 378L406 376L406 374L406 373L406 371L406 369L405 368L405 366L405 365L405 363L405 362M406 379L405 379L404 379M404 379L403 380L403 379M402 379L402 379M402 379L401 379L400 379L400 379M399 379L398 379L397 379L396 379L394 378L393 378L392 378L391 378L387 377L387 377L385 377L382 377L381 377L379 376L377 376L377 376L376 376L375 376L374 376L372 375L370 375L369 375L368 375L367 374L366 374L365 372L364 370L364 370M400 379L399 379M364 370L364 370M364 370L365 371L365 373L366 374L367 375L368 375L369 375L369 375L371 375L372 375L373 376L374 376L375 376L377 376L380 377L381 377L383 377L386 377L387 378L389 378L392 378L393 378L394 378L395 379L396 379L397 379L398 379L399 379M400 379L401 380L402 380M402 380L403 380L404 380L405 379L406 379M406 379L406 380L406 381M406 381L407 382L407 383M408 385L408 384M430 376L430 375L429 374L428 372L428 371M428 371L428 370L427 368L426 366L426 365L425 364L425 363M425 363L425 363M425 363L425 363M425 363L424 362L423 359L422 356L422 356M422 356L422 356M413 332L412 332M412 332L411 332M411 332L411 332M411 332L410 332L409 332L408 332L407 332L406 332L404 332L403 332L401 332L400 332L400 332L399 332L398 333L397 334L397 334M394 332L394 332M394 332L394 332M389 336L388 337L387 337L386 338L385 338L384 339L383 339M382 339L381 340L380 341L379 341L378 342L375 343L374 344L373 344L373 344M373 344L373 345L374 346M375 350L376 351L376 352M376 352L376 353M376 353L376 353M370 357L369 357L368 357M368 357L367 357L366 358L365 358L365 359M361 361L360 361L360 361M425 334L425 334M425 334L420 336L419 337L418 337L418 337M403 342L402 342M418 338L419 337L420 337L423 336L424 335L425 335L426 334M402 342L401 342L400 342L399 342L398 343L398 343M398 343L399 343L400 342L401 342L402 342L402 342M398 343L396 344L395 344L393 345L391 346L391 346L388 347L388 348L387 348M390 347L393 346L395 344L396 344L397 343L398 343M387 348L387 348M387 348L386 348L384 349L383 350L381 351L379 352L378 352L377 353L377 353M377 353L378 353L379 352L380 352L381 351L381 351L382 350L383 350L385 349L386 349L387 348L387 348M368 357L368 357L367 357M363 349L363 350L364 350M367 357L367 356L366 356M363 349L364 350L365 351L365 352L365 353M364 350L364 351L364 351L365 353L365 353L366 355L366 356L367 357L367 358L367 358M363 349L362 349L358 351L357 352L356 352L356 352M357 352L358 352L363 349M356 352L357 353L357 355L358 356L358 357L359 359L360 360L360 361M360 361L359 359L358 357L358 355L357 353M357 353L357 352L357 352M377 353L377 353M387 348L387 348M387 348L387 348M387 348L387 347L385 343L385 342L384 341M383 340L384 342L386 346L387 348L387 348M394 362L395 364L395 365L396 366L396 367L397 370L398 371L398 372L399 372L399 373L400 375L400 376L401 377L401 378L402 379L402 379M404 379L403 379L402 379L402 378L401 377L400 375L399 373L399 372L398 370L397 368L396 366L395 365L395 363L394 363L394 362M390 347L390 346M405 361L405 362L405 362M406 379L409 378L411 377L413 376L414 376L416 375L417 375L420 374L421 374L422 374L424 373L425 373L428 372L428 371M428 371L430 371L433 370L433 369L434 369L435 369L435 369M436 368L436 368L436 367M436 353L437 352L437 352M492 387L492 387M436 367L436 368L435 369L434 369L434 369M434 369L433 369L430 371L428 371L428 371M428 371L428 371M428 371L426 372L424 373L423 373L422 373L422 373L418 375L416 375L414 376L413 376L411 377L410 377L409 378L406 379L406 379M405 362L405 361L405 361M405 361L405 361M379 357L378 355L377 354L377 353M377 353L377 353M483 373L484 374L484 374M484 375L484 374M484 374L484 374M484 374L484 375L484 376L485 376L485 377L485 379L486 379L486 381L486 382L487 383L487 384L487 385L488 386L488 387L488 388L487 389L487 390L487 391L487 392M484 374L484 374M487 392L487 393L487 394L487 395L486 396L486 397L485 398L485 399L484 399L484 400L483 400L482 401L482 402L481 403L481 403L480 404L480 405L479 406L479 407M428 349L428 349M428 349L428 349M428 349L428 349M428 349L428 350M428 350L428 350M428 350L428 350M428 350L428 350M395 332L396 330L397 330L398 329L398 329L399 328L400 327L401 326L402 325L403 325L404 324L404 324M404 324L405 324M405 324L404 324M404 324L404 323L404 323M404 323L404 321L404 318L404 317L404 316M404 316L404 314L404 312L403 311L403 309L403 309L403 307L403 305L403 304L403 303M403 303L404 303L404 303M404 316L403 317L402 316L400 316M381 304L381 305L381 306L383 308L383 309L385 310L386 310L387 311L388 312L390 312L391 313L392 313L394 314L395 314L397 315M397 315L400 316L400 316M381 304L382 303M376 302L378 302L380 303M380 303L381 303M381 303L382 303M404 302L405 303L406 303L408 304L408 304M409 304L409 304M409 304L409 304M404 323L404 323L404 324M404 324L403 324L402 326L399 328L398 328L397 329L397 330L396 330L395 331L394 332M383 319L381 317L381 317L380 316L379 315L378 314L377 313L373 311L373 310L373 310M373 310L373 310M373 310L373 309L373 308L373 306L373 306L374 304L374 303L375 300L376 299L376 298L376 298M376 298L375 299L375 300L374 303L374 304L373 306L373 306L373 307L373 308L373 309L372 310M376 298L377 298M377 298L378 298L378 299M378 299L378 300L376 302M371 300L372 301L373 301L374 301L375 302L376 302L376 302M371 300L372 299L372 298M372 298L372 298M372 298L371 298M371 298L371 298M377 298L376 297M376 298L376 298M372 310L372 310M372 310L371 309L369 308L369 307L368 307L367 306L366 306L366 305L365 304L363 304L362 303L361 303L360 302L359 302L358 302L357 301L356 301L355 301L354 301L353 300M373 310L374 311L377 314L378 314L379 315L380 316L381 317L381 318L382 319L383 319M412 332L413 332M413 331L413 331M413 331L413 331M413 331L413 331M413 331L413 331M413 331L413 331M404 324L404 324M404 324L404 324M397 334L397 334M404 351L404 352L404 353L404 353M405 359L405 360L405 361M404 353L405 357L405 359M404 357L405 357M405 358L404 358M448 337L447 337L446 336L446 336M441 337L441 337M440 333L440 333M406 379L406 379M437 359L438 358L439 358L441 357L442 356L443 356L445 355L447 355L447 355M447 355L447 354L447 353L447 352M446 336L446 336M442 337L441 337L440 337L440 337M440 337L440 336L440 334L440 333L440 332M439 332L440 332L440 332M439 333L439 332M439 332L438 332L436 332L435 332L434 331L432 331L431 331M431 331L427 331L424 330L423 330L422 330M419 328L419 328M419 328L418 328L417 329L416 330L415 330L414 331M414 331L413 331M413 331L413 332M399 337L400 338M405 361L405 359L405 359M404 353L405 352L405 351M414 331L415 331L418 329L419 328L419 328M435 356L435 357L435 358L434 358L433 359L433 360M433 360L433 360M433 360L432 361M432 361L430 361L426 363L425 363L425 363M432 361L432 361M425 363L425 363M426 366L426 366M394 390L396 388L398 387L399 386L400 385L400 385L401 384L402 383L404 382L405 381L406 381L406 381M394 390L393 390L391 390L390 390L386 389L385 389M385 389L385 388L385 387L386 384L386 383L386 383L386 382M383 382L383 384L383 385L383 385M380 385L383 385L383 385M380 385L380 383L380 382L380 382M425 363L426 363L427 363L428 362L429 362L431 361L432 361L432 361M433 360L434 360L435 359L436 359L437 359M387 348L387 349L389 352L390 353L390 354L390 355L391 356L392 358L393 360L393 361L394 362M394 362L393 360L391 355L390 354L390 353L389 352L388 349L387 348L387 348M394 362L394 362M406 379L406 379M435 368L435 369M438 365L439 366L439 367L440 368L440 369M440 369L440 370L441 371L441 371M442 372L441 371M442 372L441 373L439 373L439 374L438 374L437 374L436 374M436 370L436 369L436 369M435 369L434 369L434 369M414 376L414 376M384 341L384 340L384 339L384 339M428 349L428 350M426 353L426 353M425 353L425 353M425 353L425 353M363 304L363 304M363 304L361 303L360 303L359 302M353 300L352 300M351 300L352 300M351 300L350 302L349 303L348 304L347 305L347 306L346 307L345 308L345 309L344 309L343 310L343 311L342 312L341 313L340 314L340 314M346 319L345 318L343 317M343 317L341 315L340 314L340 314M363 304L364 304L364 304M346 319L347 318L347 317L348 316L349 315L349 314L350 313L351 312L352 312L352 311L353 310L354 309L355 307L356 306L357 305L358 304L359 303L359 302M346 319L345 320L345 320L344 321L343 322L343 323L342 324L339 328L338 329L336 331L335 332L334 333L333 335L332 336L332 337L332 337M345 320L345 320M343 322L343 322M332 337L331 338L330 339L329 340L328 340L327 341L327 342L326 343L325 344L324 345L324 345L323 346M312 359L312 360M323 346L322 347L321 348L320 349L319 350L319 351L318 352L317 353L317 354L316 354L315 355L314 357L314 357L313 358L312 359M312 360L311 360M311 360L311 360M311 360L311 361M311 361L311 361M311 361L311 362M311 361L311 361M312 360L312 359M359 302L360 302L361 303L362 303L363 304L363 304M364 304L365 305L366 305L368 307L369 308L371 309L372 309L372 310M363 304L364 304M380 316L380 316M386 322L386 322M352 300L353 301L354 301L357 302L358 302L359 302M421 353L421 353M419 349L420 349M413 332L413 332M413 332L414 331M419 328L419 328M407 293L407 294M407 294L406 294L405 294L402 295L401 295L400 295L399 296L398 296L397 296L395 295L393 295L391 294L390 294L389 294L388 293L384 293L383 292L381 292L380 291L379 291L379 291M355 283L357 283L358 284L362 285L364 286L366 287L370 288L372 288L374 289L375 290L376 290L377 290L377 290M377 290L378 291L379 291M355 283L355 282M355 282L355 283M407 294L408 294L408 295M384 284L382 284L380 286L380 287L380 288L379 290L379 291M377 290L378 289L378 288L378 286L378 286M378 286L379 286M379 286L379 287L378 290L378 291L377 294L376 295L376 296L376 297M362 285L364 279L365 277L367 273M367 273L365 272M365 272L365 272M365 273L365 273M365 273L365 273M365 273L365 272M417 329L417 329M436 320L437 318L438 316L438 315L438 314L437 314L436 313L435 316L435 317L434 318L433 318L432 319M433 319L433 319L434 319L435 320M432 319L431 319L430 319L429 320L429 320M429 320L429 320M429 320L428 320M428 320L427 320L426 320L425 320L424 320L423 320L422 321L421 321L420 321L419 321L417 321L416 321L415 322L415 322M415 322L414 322M415 322L415 322M415 322L416 322L418 321L420 321L421 321L422 321L423 321L424 320L426 320L427 320L428 320L429 320M429 320L429 320M429 320L429 320M429 320L430 320M430 320L431 320L432 320L432 319L433 319M410 306L410 307L410 308L411 309L412 309M413 314L412 314L409 315L406 316L405 316L404 316M405 324L405 323L406 322L407 321L408 321L408 320L409 320L410 321L411 321L412 322L413 322L414 322L415 322M414 322L414 322L413 322L412 321L411 321L410 321L409 320L408 320L407 321L407 321L406 322L405 323L404 324M428 348L428 348M413 314L413 314M412 309L412 308L412 307L412 305L412 305L410 304L409 304M409 304L409 305M470 405L470 405M451 396L452 397L454 398L455 398L456 399L456 400L455 400L455 401L456 402L457 402L458 402L460 403L461 403L462 403L462 404L463 404L464 405L465 405L467 406L467 407L468 408L469 408L470 408L471 408L471 407L471 406M452 393L453 394L455 396L456 395L457 394L455 392L454 392L454 391L454 391M452 393L452 393M453 392L454 391M451 403L450 402M454 398L454 398M450 396L450 396M453 398L453 399L452 399L452 400L451 401L450 402L450 402M450 402L451 403L452 403L453 404L454 403L454 402L455 402L457 402L457 402L458 402L460 403L461 403L462 404L463 405L464 405L465 406L466 407L467 407L468 408L469 409L469 410L470 409L470 408L471 407L471 407L470 406L470 405L470 405M452 393L452 394L451 395L451 396L450 396M454 391L453 392L452 393L452 394L451 395L451 396L450 396L450 396M450 396L450 396M450 396L451 397M451 397L452 397L453 398L454 398L454 398M454 398L455 399L455 400L455 401L454 401L453 401L452 401M446 398L446 397M452 401L451 400L450 400L449 399L447 398L446 398M446 397L445 397L445 396L444 395L442 394L438 389L436 387L435 386L434 386L434 385L433 384L433 383L432 382L432 380L432 380M432 380L431 378L430 377L430 376L430 376M422 357L422 357M422 357L422 357M423 360L423 360M424 363L425 363M425 363L425 363M425 363L425 363M430 376L431 378L431 379L431 380M431 380L432 382L432 383L433 384L434 385L434 386L435 386L436 387L442 394L444 396L445 397L446 398M446 398L446 398M452 401L453 401L454 402L453 403L453 403L451 403L451 403M446 398L447 399L448 399L449 400L450 400L452 401M450 402L451 401L452 400L453 399L454 399L454 398M450 397L450 396M450 402L450 402M450 402L450 402M429 321L430 320L430 320M433 319L434 319L434 318L435 318L436 317L436 316L437 315L437 314L437 314M439 312L439 311L439 310L440 308L440 307L440 306L440 305L440 304M437 314L439 312M440 304L441 303L441 302L442 301L443 301L444 300L445 300L446 300L449 300L450 300L451 300L453 300L455 300L458 300L464 301L466 301L467 301L469 301L472 301L477 301L477 301M478 301L478 301M478 301L477 301M477 301L475 306L473 310M473 310L475 312L476 313M476 313L475 314L474 314L474 315L473 315L472 316L471 316M471 316L471 317M471 317L472 317M444 300L443 300L442 300M442 300L441 300L441 300M440 301L440 301L440 303M440 305L440 307L439 309L439 310L439 311L438 312M437 314L437 315L436 316L436 317L435 317L434 318L434 319L433 319L432 319M440 303L440 304L440 305L440 305M438 312L437 314M430 338L430 339M472 301L472 300L472 299L473 298M473 298L472 298M476 313L477 315L479 319M479 319L480 320L480 321L480 322L481 323L482 323L482 323M472 317L472 317M442 300L441 300L441 299L441 299M472 317L471 316M577 270L578 270M577 270L577 270M578 270L578 270M578 270L579 267L580 265L582 263L583 261M583 261L579 257L574 254L571 253L568 251M547 238L548 239L551 241L553 242L555 243L557 244L558 245L560 246L563 248L568 251M540 252L542 247L547 238M530 249L532 250L535 250L537 251L538 252L539 252L540 252M540 252L541 253L542 253L544 254L545 254L546 254L547 255L550 256L553 257L554 257L557 259L561 261L562 262L562 262M530 249L527 248L526 247L525 247L524 246L523 245L522 244M522 244L521 244L520 243L519 242L518 241L517 240L516 240L516 240L515 241L515 242L514 242L513 243M455 256L454 256L453 257L452 258L451 260L450 261L449 262L449 263L448 264L448 265L447 266L447 267L446 269L446 270L445 271L445 272L445 273L445 274L444 275L444 276L444 279L443 281L443 283L443 285L443 286L442 288L442 289L442 290L442 293L441 294L441 296L441 298L441 299L441 299L441 300M513 243L512 243L511 243L510 243L509 243L508 243L506 244L505 244L504 244L503 244M498 244L496 244L495 245L494 245L493 245L490 245L489 245L486 245L483 246L482 246L479 246L478 246L477 246L474 247L472 247L471 247L470 247L469 248L467 248L466 249L465 249L464 250L463 250M503 244L502 244L500 244L499 244L498 244M463 250L462 250L461 251L461 251L460 252L459 252L458 253L457 254L456 254L456 254M456 254L455 256M440 304L441 302L441 301L441 301M441 300L441 299M441 299L441 297L441 296L442 294L442 293L442 291L443 288L443 287L443 286L443 282L444 280L444 279L444 278L444 276L444 275L445 274L445 273L445 272L445 271L446 270L446 269L447 268L448 266L448 265L449 264L450 262L450 261L451 260L452 259L453 258L454 257L455 256L455 256M515 242L516 242L517 242L519 242L520 243L521 243L521 244L522 244M455 256L456 255L457 254L458 253L459 253L460 252L461 251L462 251L463 250M513 243L514 242L515 242M577 270L573 268L568 265L566 264L566 264L565 263L564 263L563 262L562 262L562 262M577 270L577 270M577 270L579 271L580 271L581 272L583 273L586 274L588 275L588 275L589 275M430 339L430 338L430 338M573 268L573 268M654 301L653 301L652 301L647 300L645 300L644 300L643 300L638 300L637 299L635 299L634 299L629 299L623 298L622 298L621 298L620 298L619 298L617 297L617 297M611 297L610 296L610 295L609 294L608 294L607 293L606 291L603 288L602 287L600 285L596 282L596 281L595 280L594 280L593 279L592 278L590 277L590 276L589 275L589 275M617 297L616 297L614 297L612 297L611 297L611 297M562 262L562 262M546 254L546 254M440 303L440 305L440 305M430 319L430 319M429 323L429 323M414 331L414 331M430 326L430 326M431 328L431 328M431 329L431 329M430 339L430 339M654 301L654 301M578 270L577 270M654 301L654 301M654 301L658 302L659 302L660 302L662 302L662 302M700 410L700 410M700 410L700 410M692 419L694 417L696 414L696 413L697 412L698 412L699 411L700 410M700 410L700 410M692 419L689 419L687 418L685 418L681 417L677 416L673 415L673 415M673 415L674 410L674 409L674 408L675 406L675 404L676 402L676 399L676 398L677 398L678 397L679 395L681 393L682 392L682 391L682 390L683 389L683 388L684 387L685 386L685 385L686 385M686 385L685 384L684 383L684 382L683 381L682 380L682 379L681 378L680 377L680 376L679 374L679 374L678 372L677 371L675 367M675 367L674 365L673 363L672 361L672 360L671 360L671 359L670 358L670 357L670 356L669 355L669 353L669 352L668 349L668 347L668 344L667 341L666 336L666 330L666 329L665 323L664 317L662 304L662 303L662 302M376 297L376 296L377 294L378 290L379 288L379 287L379 287L380 286M379 286L378 286M700 410L700 410M415 322L415 322M700 410L700 410M629 299L629 299M381 303L381 304M413 256L413 254L413 252L413 250L413 249L413 248L413 245L413 244L413 243L413 242L414 241L414 240L414 240M414 240L414 238L414 237L415 234L415 233L416 232L416 230L416 229L417 228L417 228L417 227L418 226L418 225L419 224L419 224L420 223L421 222L421 222L422 221M422 221L423 221L425 219L426 219L427 219L428 219L429 219L432 220L433 220M458 234L458 233L459 232L460 231L461 229L463 227L464 225M430 324L430 324M431 336L431 336M433 220L434 222L435 223L436 223L441 224L443 225L445 225L448 226L450 227L451 227L452 228L453 228L454 229L454 230L455 231L455 232L456 233L458 234M464 225L462 224L461 223L459 223L462 218L465 217L465 216L466 216L467 215L468 212L469 211L469 210L469 208L469 207L470 205M414 240L413 241L413 241M421 300L421 300M421 301L422 301M427 313L427 313M481 85L481 87L480 89L480 91L480 92L479 94L479 97L478 98L477 102L476 105L476 107L476 108L476 109L475 110L475 112L475 112L475 113L475 114L474 115L474 116L473 117L473 118L472 120L472 121L471 121L471 122L470 124L468 126L468 127L467 128L467 129L466 130L466 131L465 132L465 133L465 134L464 135L464 137L463 137L463 139L463 140M481 85L482 85L482 84L482 83L483 81L484 76L485 75L485 73L485 72L486 71L486 70L486 69L487 67L487 67L487 66L488 64L488 63L488 62L489 61L489 59L490 58L490 57L490 56L491 55L491 54L491 53L492 51L492 50L493 49L493 48L493 46L494 44L494 43L495 42L495 41L496 38L496 36L497 35L497 34M463 140L462 141L462 142L461 143L461 144L461 145L461 145M461 145L460 146L460 147L459 150L459 151L458 152L458 153L457 154L455 158L454 160M454 160L453 162L450 167L448 171L447 173L446 174L446 175L445 176L445 177L444 178L443 179L443 181L441 184L441 185L440 186L440 187L439 189L439 190L438 192L438 194L437 196L436 198L436 199L435 200L434 202L433 203L433 204L432 205L431 206L430 207L430 208L428 209L428 210L426 213L425 214L424 216L424 217L423 218L423 220L422 221L422 221M429 319L428 320M411 332L411 332M411 332L411 331M411 331L411 331M411 331L411 331M410 332L411 332M411 332L411 332M411 331L412 331M417 325L417 325M497 34L497 34L498 32L498 30L499 29L499 27L499 26L499 25L500 20L501 17L501 16L501 15L502 13L502 12L502 12L504 7L505 5L505 3L506 1L506 1M506 1L506 0M506 1L506 0M506 0L506 0M497 34L497 33M466 130L467 129M502 11L502 12L502 12M461 144L461 145M461 145L461 146M417 291L415 292L414 292L412 292L410 293L410 293L409 293L408 293M413 317L413 316L413 315M630 56L630 57L629 59L628 59L628 60L627 62L626 63L625 65L624 66L624 67L623 68L623 68M630 56L631 55L631 55M623 68L622 67L620 66L620 66L615 63L614 62L613 61L611 60L610 60L609 60L608 60L606 60L605 60L605 60L603 60M603 60L602 60L600 59L600 59L599 59L598 59M598 59L598 59L590 58L582 57L574 56L573 56L572 56L570 55L555 51L553 50L540 46L538 45M538 45L537 45L535 44L533 43L532 43L531 43L530 43L528 43L526 43L525 43L522 43M522 43L521 43L520 43L519 43L517 43L515 43L514 43L513 43L512 43L510 42L509 41L508 40L504 38L503 38L502 37L502 37L500 36L499 35L498 35L497 34M413 256L413 256M468 126L468 126M467 129L467 129M414 241L413 241M406 287L406 284L405 283L405 283L405 281L405 280L404 278L404 278L402 271L402 271M409 243L410 241L410 240L411 239L411 238L412 237L412 235L411 234L411 233L411 230L411 229L410 228L410 228M410 228L410 228M410 228L410 227L410 224L410 224L409 222L409 221L409 220L409 216L410 211L411 207L411 205L411 203L411 202L411 202L411 200L412 199L412 198L412 197L412 196L412 195L413 194L413 193L414 191L414 190L414 189L415 187L415 186L415 185L415 184L415 182L416 179L416 178L416 177L416 176L416 175L416 174L416 173L416 171L416 170L416 168L416 167L416 165L416 164L416 163L416 160L417 159L417 158L417 157L417 155L417 154L417 153L418 152L418 151L418 149L418 147L419 145L419 144L419 143L419 140L419 139L419 138L419 137L419 136L419 135L419 133L419 132L419 131L419 130L419 128L419 127L420 126L420 125M420 125L419 125L418 125L417 125L411 126L409 126L408 126L406 126L405 126L403 126L402 126L401 126L400 126L399 126L397 126L396 126L395 126L394 126L393 126L392 126L389 126L388 126L387 126L387 126L385 126L385 126L383 127L382 127L381 127L380 127L379 127L378 127L377 127L375 126L373 126L371 126L368 125L366 125L365 125L363 124L362 124L359 124L359 124M359 124L358 124M407 290L407 291M420 125L420 123L419 122L419 120L419 118L419 117L419 116L418 112L418 111L418 110L417 109L416 107L416 106L414 101L413 99L413 99L412 98L412 96L411 95L410 94L410 93L409 92L408 92L407 91L406 89L404 87L403 86L402 85L402 84L401 84L401 83L400 82L400 80L399 78L398 77L398 77M398 77L398 77M351 300L350 300L348 299L347 299L346 299L345 299L343 298M342 298L342 298L340 298L339 297L338 297L338 297L337 296L336 296L336 296M335 296L334 295L333 295L331 295L331 294L330 294L328 294L327 293L326 293L325 293L324 292L323 291L321 291L320 290L319 290L318 289L315 288L314 287L313 287L312 286L310 285L308 284L307 284L305 283L305 283M342 298L343 298M335 296L336 296M305 283L303 282L302 282L301 281L300 281L298 280L297 279L296 278L295 278L294 278M293 281L294 278L294 278M288 290L289 289L289 287L290 286L291 284L292 283L292 282L293 281M280 286L282 287L288 290L288 290M283 279L282 281L281 282L281 283L280 284L280 285L280 286M283 279L284 277L285 274L286 273M286 273L286 273L287 271L287 270L288 269L289 267L289 266L290 264L291 262L292 261L292 260L293 259L293 258M293 257L293 258M293 257L294 256L294 255L294 255M295 255L294 255M275 143L273 136L270 128M278 142L275 143M278 142L279 144L279 146L279 147L278 150L278 151L278 152L277 153L277 154M277 154L273 163L271 168L271 169M271 169L270 170L270 171L268 176L266 182M266 182L266 182L269 183L271 184L272 185L273 186M278 187L277 187L277 186L276 186L274 186L273 186M278 187L278 188L278 189L278 190L279 191L279 192L279 194L281 200L281 201L284 209L285 212L285 213L285 214L285 215L285 216L285 218L285 219L285 219M285 219L285 220L285 221L285 222L285 223L286 224L286 226L287 228L288 233L289 236L290 239L291 241L292 244L292 245L292 246L293 248L294 250L294 251L294 252L294 253L294 254L294 255M286 273L286 274L287 274L288 275L289 275L290 276L292 276L293 277L294 277L294 278M270 128L270 128M270 128L270 128M270 128L270 127M266 125L264 124L261 124L253 123L251 123L247 123L246 123M270 127L270 128M270 128L270 128M270 128L269 127M271 169L270 168L269 167L268 167L268 166L267 165L266 165L265 164L264 163L264 163L261 161L260 160L260 159L258 158L258 157M258 157L255 155L253 153L251 151L250 150L249 149L248 149L247 147L246 146L245 146L245 145L244 144L244 143L244 142L244 141L244 138L244 137L245 135L245 130L245 128L246 127L246 126L246 123L246 123M246 123L246 121L246 119L246 118L247 116L247 115L247 112L247 109L247 108L248 106L248 105L248 104L248 103L248 102L248 101L248 100L247 99L247 98L247 96L246 94L246 93L245 89L245 87L244 83L243 79L243 78L243 76L243 75L242 73L242 72L242 71L242 70L241 69L241 68L241 67L241 65L240 64L240 63L240 63L239 62L238 61L238 61L237 60L237 59M227 25L227 24L227 23L227 22L227 21L228 21L229 20L230 19L230 18M237 59L237 59L236 56L236 53L235 52L235 50L234 46L234 45L233 43L233 41L233 40L233 40L232 39L232 38L232 36L231 36L231 34L230 33L230 32L229 31L229 29L228 26L227 25L227 25M227 25L226 25L226 25M231 16L231 16M231 16L231 17L230 18L230 18M231 18L231 18M231 18L231 17L231 17M269 127L268 126L266 125L266 125M353 301L353 300M413 330L413 330M311 359L311 360M356 363L356 363M413 330L413 331M416 341L416 342M350 362L349 362L347 361L346 361L345 361L344 360L343 360L342 359L340 359L339 358L338 358L338 358L336 357L335 357L334 357L333 357L332 356L331 356L331 356L329 355L328 355L326 354L325 354L324 353M324 353L322 353L319 352L319 352L318 352M323 346L321 345L320 344L318 342L315 340M315 340L314 341L313 342L312 343L312 344L312 344M312 344L311 345M311 347L311 348L311 349L312 351M312 351L309 352L306 353L304 353L302 354L301 354L298 355L295 356M297 362L296 360L296 359L295 357L295 356M297 362L299 361L303 360L304 359L305 359L307 359L307 359L308 359L310 359L311 359M311 360L311 360M220 367L220 367M220 367L221 368M221 368L221 369M221 369L221 370L221 372M221 372L221 374L221 376L221 377L221 378L220 381L220 381M220 381L220 381M232 382L231 382L230 382L227 381L226 381L225 381L223 381L220 381M220 381L219 381L215 380L215 380M215 380L213 380L208 380L205 379L203 379L201 379L200 379L199 379L195 378L193 378L192 378L184 377L175 376L171 375L171 375L169 375L166 375L166 375M232 382L232 382L235 382L235 382M235 382L235 382M235 382L238 383L241 383L242 383L243 384L245 384L246 384L248 384L249 385L250 385L252 385L254 385L256 386L257 386L258 386L259 386L261 387L262 387L264 387L265 386L266 386L267 385L268 385L269 384L270 383M270 383L270 383M270 383L270 380L271 378L271 377L271 376L272 374L273 373L275 371L276 369L276 369M277 369L276 369L276 369M277 369L282 367L283 367L284 367L284 367M276 369L277 369M284 367L287 366L293 364L294 364L299 362L300 362L304 361L305 361L306 360L307 360L308 360L309 360L310 360M310 360L311 360M311 361L312 361L318 363L319 363L320 363L321 364L323 364L324 364L325 365L326 365L327 366L331 367L332 367L334 368L335 368L336 369L337 369L339 370L340 371L341 371L341 371L343 371L344 372L346 372L346 372L348 372L349 372L350 372L351 372L353 372L354 372M354 372L355 373L357 373L358 373L359 372L360 372L361 372L362 371L363 370L364 370M382 364L378 364L377 364L376 365L374 366L372 367L372 367M364 370L364 370M360 372L359 372M364 370L364 370M364 370L362 371L361 371L360 372M359 372L358 372L356 372L354 372L354 372M354 372L352 372L351 372L347 372L346 372L345 371L344 371L343 371L342 371L341 371L340 370L338 370L337 369L335 368L334 368M333 367L332 367L330 367L329 366L328 366L327 365L326 365L325 365L323 364L322 364L321 363L314 361L313 361L312 360L312 360M334 368L333 367M311 360L310 360L309 360L308 360L307 360L306 360L304 361L303 361L301 362L300 362L296 363L295 363L294 364L292 364L291 364L290 365L289 365L288 365L287 366L286 366L285 366L284 366M284 366L282 367L279 368L277 368L276 369L276 369M276 369L275 369L274 369M277 369L277 369M248 377L249 377L250 376L252 376L255 375L255 375L256 375L257 374L259 374L260 374L261 373L264 372L270 371L271 370L273 370L274 369L275 369L276 369M235 381L235 382L235 382M235 381L235 382L233 382L233 382L232 382M220 367L221 368L221 368M127 396L127 396M221 368L221 368M235 359L235 359M235 358L235 358M235 380L235 381M235 358L235 359M235 359L235 361L236 363L236 364L236 364M236 364L239 367L240 368L241 369L242 371L244 373L245 374L246 375L248 377L248 377M236 364L236 367L236 368L236 370L235 371L235 373L235 375L235 376L235 377L235 378L235 379L235 380M216 372L221 372M216 372L216 373L216 376L215 378L215 380L215 380M235 381L236 381L237 380L238 380L239 379L245 377L247 377L247 377L248 377M237 364L237 364M240 369L240 368M412 361L412 361M270 383L271 383L272 383L277 384L281 385L283 385L287 386M284 367L284 368L283 369L283 370L283 371L283 372L283 373L283 374L283 375L284 376L285 378L285 379L286 382L286 384L287 385L287 386M284 367L284 366M360 361L360 361M360 372L359 372L359 372M335 368L335 368M333 367L334 368L334 368M334 368L334 368M333 367L333 367M365 272L365 272M128 396L127 396M130 395L128 396L127 396M130 395L129 389L128 385L128 384L127 378L127 377M127 377L127 377M127 376L128 376M138 377L135 377L134 377L133 377L132 377L129 376L128 377L127 377M138 377L141 377L143 377L144 377L145 377L146 377L147 376L148 376L150 376L151 375L153 375L154 375L155 374L155 374M155 374L156 374L158 375L159 375L161 375L162 375L164 375L166 375L166 375M425 363L425 363M510 413L510 414L511 415L512 416L512 417L513 417L514 418L514 418L516 420L518 421L518 421L520 422L521 423L521 424L522 425L523 426L523 426L524 427L524 428L525 429M525 429L526 430L526 430L528 431L529 432L530 433L531 433L533 434L534 435L534 435M534 435L536 436L537 436L538 437L538 437L539 437L541 438L542 439L543 439L544 440L546 441L546 441M546 441L547 442L549 442L550 443L551 443L552 444L553 444L555 445L556 445L557 446L558 447L559 447L560 448L561 449L561 449M546 441L546 441M561 449L560 450L560 451L559 452L559 453L558 453M558 453L557 453L556 453L555 452L555 452L555 452M555 452L554 452M554 452L554 454L553 455L553 455M553 455L553 456L553 457L554 458L554 459L554 460L555 461M555 461L555 462L555 463M555 463L555 463L556 464L557 465L557 466L557 467L557 468L557 470L557 471L557 472L558 473L558 474L558 476L559 477L559 478L559 479L559 480L559 480M554 452L554 452M558 453L559 454L559 455L560 456L560 456L561 457L562 457L564 458L565 459L566 459L566 460M553 455L553 456L552 457L552 458L551 459L551 460L551 461L551 462L551 463L551 464L552 465L552 467L552 468M552 468L552 467M552 467L552 467M558 447L558 447L556 448M556 448L556 448M561 449L561 449M561 449L562 451L563 452L564 453L565 454L567 457L568 458L568 459L569 459L570 460L571 461L573 462L574 463L574 463L575 464L576 465L577 467L577 467L578 468L579 470L579 471L580 472L580 473M580 473L581 473M581 473L581 474L581 475L581 477L581 478L582 479L582 481L582 483L582 484L582 485L582 487L582 491L581 494L581 495L581 497L580 501L580 502L580 503L580 504L579 505L578 506L578 507L578 508L578 509L578 510L578 510L579 511L580 512L582 513L582 513L583 515L584 516L585 517L585 518L586 519L586 520L586 521L586 522L586 525L586 526L586 527L586 528L587 530L588 531L588 533L589 534L589 535L589 536L589 537L588 542L588 542L588 543L588 544L588 546M588 546L589 545L590 544L592 544L593 543L594 543L598 541L599 541L600 540L601 540L602 539L603 539L604 538L604 538L605 538L606 537L608 536L608 536L609 535L610 534L611 533L612 533L613 532L613 532L614 531L615 531L616 531L618 532L619 532L620 533L621 533M621 533L624 534L625 533L626 533L627 533L628 534L629 534L633 534L634 534L635 534L638 534L640 535L642 535L644 536L646 536L647 536L650 537L653 537L655 537L656 538L657 538M657 538L658 538L660 539L663 540L665 540L668 541L669 542L670 542L670 542M443 351L443 351M501 473L501 472L501 471L500 470L500 469L500 468L499 467L499 466L498 465L498 465L497 464L496 463L496 463M494 447L495 447L495 448L495 449L495 450L495 452L495 455L495 456L495 458L495 459L495 461L495 462L496 463L496 463M496 463L497 465L498 466L499 466L499 467L500 468L500 469L500 470L500 471L500 472L501 473L501 473M494 447L494 446L494 445L493 444L493 443L493 441L494 440L494 439L494 439L495 438L495 436L496 436L496 434L497 433L497 432L497 430L496 429L496 428L496 427L496 426L496 425L496 423L496 422L496 422L495 421L495 420L494 419L494 418L494 417L493 416L493 415L492 414L492 413L491 412L491 411L491 410L491 409L491 408L491 408L491 407L491 406L491 405L490 404L490 403L490 402L490 401L490 400L490 399L490 398L490 397L490 396L489 395L488 394L488 393L488 393M488 393L487 392M484 374L484 374M454 350L454 350M496 463L496 463M436 354L436 354M433 360L432 361L432 361M451 403L450 402M449 407L449 405L449 404L450 403L450 402L450 402M450 402L449 403L449 404L449 405L449 407L449 407M449 407L448 409L447 411L447 412L447 412M446 412L446 412M446 413L447 412M446 413L445 413L443 413L443 413L442 413L441 413L439 414L438 415L437 415L436 415M436 415L436 415L435 414L434 414L434 413L433 413L432 412L432 412M432 412L431 411M431 411L430 412L430 411M430 411L429 411M429 411L428 411L427 411L426 410L425 410M422 410L421 410L421 411L420 411L419 412L419 413L419 414L418 415L418 415M425 410L424 410L423 410L422 410L422 410M418 415L418 416L419 417L420 417L421 417L422 418L422 419M422 419L422 419M422 420L422 421L422 422L422 423L422 424L422 425L423 427L423 428L424 430L424 431L424 432L425 433L426 434L426 435L427 436M449 407L449 407M421 419L421 419M421 419L421 419M421 420L421 419M421 419L420 421L420 423L420 424L419 425L419 426L419 427L419 428L419 429L419 431L419 432L419 434L419 434L419 436L418 437L418 438L418 438M421 419L422 420M427 436L427 437L427 438L427 440L427 441L427 443L428 445L427 446L428 446L428 447M428 447L428 448L428 449L429 450L429 452L429 453L429 453M429 453L429 454L429 456L429 457L429 457L429 458L429 460L428 461L428 462L428 463L428 464L428 464L427 466L427 467L427 470L427 471L427 472L427 473L427 474L427 475L427 476L427 477L426 479L426 480L426 481L426 481M426 481L426 482L426 484L426 485L426 487L425 488L425 489L425 490L425 492L425 493L425 494L424 496L424 497L424 498L423 499L423 500L422 500L421 501L420 502L420 503L420 503M427 436L428 435L429 434L429 434L429 433L430 432L430 431L430 430L430 429L431 428L431 427L431 426L430 425L430 424L430 422L430 421L430 421L431 420L431 419L431 418L430 417L430 416L430 415L430 414L430 413L430 412L429 412L430 411M450 402L450 402M447 412L447 413L447 414L446 415L446 416L445 417L445 418L445 419L446 420L447 421M447 421L447 421M447 421L447 421M436 354L436 354M436 354L436 354M473 358L472 359L472 360L472 361L472 361L472 363L472 364L473 365L472 366L472 366L471 367L469 368L468 370L468 371L466 373L466 374L465 375L464 376L463 377L462 377M462 377L462 378L462 379L462 380L462 381L462 382L462 383L461 383L460 384L459 384L459 385L458 385L457 387L456 388L456 389L455 389L455 390L454 391L454 391M450 396L449 397L448 399L447 400M447 400L446 401M443 431L443 432M446 401L444 402M444 402L443 403L442 403L441 404L440 404L439 405L438 406L437 407L436 408L435 408L434 409L433 410L432 411L431 411M443 403L444 402L445 401L446 401M437 415L437 415M446 413L446 413L446 414L445 415L445 416L444 418L444 419L443 420L443 421L443 422L442 423L442 424L442 425L442 426L442 427L442 428L442 429L442 430L443 430L443 431M443 432L443 433L442 434L442 435L442 436L442 437L442 438L442 439L442 440L441 441L441 441L441 442L441 443L441 444L441 445L441 446L441 447L441 448L441 450L440 451L440 452L440 453L439 454L439 455L439 456L438 457L438 458L438 459L438 460L437 461L437 462L437 463L436 464L436 465M436 465L436 465M440 451L440 451M436 465L436 465M442 403L443 403M446 401L447 400M447 400L448 399L449 398L450 397M450 397L450 397L451 397M457 350L457 350M436 356L435 356M419 413L419 413M462 379L462 379M396 422L396 421M418 415L417 415L416 415L415 416L414 416L413 416L412 417L411 417L410 417L409 417M409 417L409 417L407 418L406 418L405 419L403 419L403 420L402 420L401 421L400 421L399 421L398 421L397 421L396 421L396 421M409 417L409 417M396 421L396 422M396 422L395 422L394 422L393 422L392 422L391 423L390 423L389 423M447 412L447 411M447 411L447 411L447 410M400 421L400 421M424 410L424 410M433 360L433 360M426 481L426 481M447 413L447 412M418 438L418 439M418 439L418 439M418 439L417 441L417 442L417 443L416 444L416 446L415 447L415 448L415 448L416 449L416 450L416 452L416 453L415 455L415 456L415 457L415 458L416 459L416 460L416 461L416 463L416 464L416 465L417 467L417 468L418 469L418 470L418 470L418 471L418 473L418 474L418 475L417 477L417 477L416 478L416 479L415 480L414 481L413 482L412 483L411 483L410 484L410 485L410 486L409 487L409 488L408 488L407 488L406 488L405 488L404 487L403 487L402 486M422 419L422 419M402 486L402 486M450 402L448 401L447 401L446 400L445 400L444 401L444 402L444 402M389 423L388 423L387 423L386 424L385 424L385 425L384 425L383 426L382 426L381 426L381 426M381 426L380 427L380 428L381 429L381 431L382 432L382 432L382 433L382 434L381 435L381 436L381 437L381 438L382 439L382 439L383 440L383 440L383 442L383 444L382 445L382 446L382 447L382 448L382 449L382 449M382 449L382 450L382 451L382 453L383 454L382 455L382 456L383 457L382 458L383 460L383 462L384 463L384 463M384 463L383 465L383 467L382 468L381 469L381 470L381 471L380 472L380 474L380 476L379 477L379 478L379 479L378 480L378 481L377 482L377 482L377 483L376 485L376 486L376 487L376 488L376 489L377 490L377 491L377 492L378 493L378 493L378 494L377 495L377 496L377 497M377 499L377 498L377 497M381 436L380 436L380 436L379 437L379 437L379 438L379 439L378 440L378 440M378 440L377 440L377 439L378 438M378 438L377 438M377 499L376 499M429 411L429 411M397 421L397 421M397 421L396 421M381 426L380 427L379 427L378 428L376 429L375 429L374 430L373 430L372 430L371 431L370 431L369 431L367 432L366 432L365 432L364 432L362 433L361 434L360 434L359 435L358 435L357 436L356 436L355 436L353 436L352 436L351 436L349 437L348 437L347 437L346 437L345 438M345 438L344 438L343 438L342 438L340 438L340 437L339 437L338 437L336 438L335 438L334 437L333 437L332 437L332 437M328 437L329 437L330 437L332 437M328 437L328 437M328 437L328 439L328 440L328 441L327 441L327 442L327 443L327 444L327 445L327 446L327 447L327 448L327 448L327 450L327 451L327 452L327 453L328 455L328 456L329 457L329 458L329 460L330 462L330 463L330 463L330 464L330 465L330 466M330 466L330 467L329 467L329 468L329 469L330 470L330 471L331 472L331 473M331 473L331 474L331 478L331 479L332 480L332 481L333 482L334 483L335 485L335 486L335 487L334 488L334 489L333 490L333 491L332 492L331 493L331 494M331 473L331 473M331 494L331 494M440 405L440 404L440 404M443 403L443 403M270 480L270 480M270 480L270 479L270 478L270 477L270 476L269 476L269 474L269 473L268 472L268 471L268 470L268 469L268 468L268 467L268 467L267 466L266 465L266 464L267 463L267 461L267 460L268 459L267 458L267 457L266 457M266 457L265 456L264 455L263 454L262 453L262 452L262 451L262 449L262 447L262 446L263 445L263 444L263 444L263 443M263 444L263 444M263 444L263 443M263 443L263 443M263 443L264 443L265 443L266 442L267 442L268 442L268 442L269 441L270 441L271 440L272 440L273 440L274 440L275 439L276 440L277 440L278 440M278 440L279 440L280 440L282 440L283 440L284 440L285 440L286 440L287 439L288 439L289 439L290 439L293 440L295 440L296 440L297 439L298 439M298 439L299 439L300 439L302 439L304 439L305 439L306 439L307 439L309 439L310 439L310 440L311 440L312 440L313 440L314 440L315 440L316 440L317 440L318 440L319 440L320 440L322 439L323 439L324 439L325 438L326 438L327 437L327 437L328 437M270 480L270 480M270 480L270 480M263 443L261 444L260 444L259 444L258 445L257 445L255 446L254 446L254 446L253 446L252 446M254 446L254 446M252 445L252 446M252 445L252 444L252 442L252 438L252 437L252 435L253 430L253 429L253 428L253 427L253 424L254 422L254 421M253 421L254 422M233 444L233 443L234 442L234 441L234 439L234 437L234 436L234 435L234 434L233 433L233 432L232 430L231 429L231 428L232 428L234 427L236 426L236 426L239 425L240 425L241 425L242 424L243 424L243 424L244 423L245 423L247 422L248 422L249 422L250 422L251 421L252 421L253 421L254 421M233 444L232 444L231 443L230 443L228 441L226 440L226 440L225 439M222 438L224 439L225 439L225 439M206 428L207 429L208 429L208 430L209 431L211 432L212 432L213 432L215 433L217 435L218 436L219 436L221 437L222 438L222 438M206 428L205 428L204 427L203 427L202 426L202 426L200 425L198 425L196 424L193 422L192 421L190 421L189 420L187 420L186 420M185 420L186 420L186 420M184 418L185 420L185 420M327 437L328 438M186 418L184 418L183 418L182 417L180 417L179 417L178 417L177 417L176 417L175 417L174 418L173 418L172 418L171 419L170 418L169 418L167 418L166 418L165 419L165 419L164 419L163 419L161 419L160 420L159 420L158 420L157 420L156 420L155 421L154 421L153 422L152 422L150 422L150 422L149 423L148 423L146 423L145 423L142 423L140 423L139 423L138 423L137 424M186 418L186 419L186 420M106 434L107 433L107 432L108 432L109 431L110 431L111 430L112 430L113 430L114 429L115 429L116 428L117 428L118 428L119 427L120 427L121 427L122 427L122 427L123 427L125 427L125 427L126 427L129 426L130 426L131 426L132 426L133 426L135 426L135 425L136 424L137 424L137 424M106 434L105 434L104 435L103 435L103 436M135 426L135 425L135 425M137 424L137 424M398 421L398 420M416 340L416 340M17 477L17 478L18 480L19 482L19 483L19 484L19 485L20 489L21 491L21 493L22 494M6 432L8 435L9 436L10 438L11 439L11 440L11 442L11 443L11 445L11 449L11 450L11 452L11 453L11 454L11 455L12 456L12 457L13 460L13 460L12 462L12 464L12 465L11 466L11 467L11 468L12 469L13 471L13 471L16 474L16 475L17 476L17 477M0 427L1 428L2 428L3 430L5 431L6 432L6 432M6 432L6 432M58 438L58 437M113 510L114 509L114 509L114 507L114 508M4 414L4 415L4 416L3 417L3 418L2 419L2 420L1 421L1 423L0 424L0 425L0 426L0 427M68 491L69 492L69 493L70 494L72 496L72 497L73 498L74 499L74 500L75 501L75 502L77 504L77 504L78 505L78 506L79 507L80 508L80 509L80 510L80 511L80 512L80 513L80 515L80 515M7 409L7 411L6 413L5 413L4 413L4 414M7 409L8 409L9 410L10 411L11 412L13 413L14 413L15 414L16 414L17 415L18 416L19 416L20 417L21 417L22 418L23 418L24 418L24 418L25 419L26 419L27 420L28 421L29 422L31 424L32 424L33 425L35 426L37 427L38 428L39 428M39 428L40 429L41 430L42 430L44 432L46 432L47 433L50 434L53 436L53 436L54 436L56 437L57 437L57 437L58 438M58 438L58 438M58 438L59 439L60 440L60 441L61 442L61 442L62 443L63 443L65 444L66 444L67 445L69 445L70 446L71 446L72 446L74 446L75 445L76 445L78 445L79 444L79 444L80 444L82 444L82 444L83 445L84 445L84 447L85 448L86 448L86 448M86 448L87 447L87 446L88 446L89 445L90 444L91 444L92 443L93 443L94 442L94 442L95 441L97 440L98 439L98 439L100 438L100 438L101 437L103 436M63 443L62 443L62 444L62 445L62 446L63 447L63 449L62 450L62 451L62 452L62 453L62 454L62 455L62 457L61 458L61 459L61 460M61 460L60 461L59 462L59 463L59 464L59 465L58 467L58 468L58 469L58 471L59 471L59 473L59 473L59 474L60 477L60 478L61 479L61 480L61 480L62 482L63 483L63 484L64 485L65 487L65 488L65 489L66 489L67 491L68 491M61 460L61 460M80 509L80 510L81 511L82 511L84 512L85 512L86 512L87 513L88 513L89 513L93 516L94 517L95 517L96 517L97 517L98 518L98 518L102 518L103 518L104 518L105 518L106 518L107 517L108 516L108 514L108 514L109 513L110 512L111 511L111 511M111 511L112 510L113 510M420 503L419 504L418 504L417 505L416 506L415 506L414 507L413 508L413 509L411 509L410 510L409 511L409 511L408 512L407 513L407 514L406 514L406 515L405 516L405 517L406 518L406 519L405 520L404 520L404 521L405 521L406 522L406 525L406 526L405 528L405 529L404 530L403 530L402 531L402 532L404 532L405 531L405 531L406 532L407 534L408 536L408 536L409 537L409 538L410 539L410 540L411 540L411 541L412 542L412 543L413 544L413 545L413 545L412 546L412 547L412 548L412 549L411 549L410 549L409 550L408 550L407 551L407 552L408 552L409 553L410 553L411 553L411 554L412 555L412 554L413 554L414 553L414 551L415 550L415 549L416 548L416 547L417 548L418 548L419 548L419 547L418 546L417 546L417 545L416 545L415 544L415 542L414 541L414 540L412 538L412 538L411 537L411 536L410 535L409 534L409 533L408 531L407 531L407 530L407 529L407 527L407 526L407 525L408 524L408 523L408 522L408 521L408 520L408 519L408 517L409 516L409 515L409 514L410 513L411 512L411 511L412 510L414 509L414 508L415 508L416 507L417 506L417 506L418 505L419 503L420 503M412 555L411 555L410 555L409 555L407 555L407 555L406 555L405 555L404 555L403 553L403 553L403 552L403 551L403 550L402 548L402 548L401 548L400 548L399 548L398 549L397 549L396 549L395 549L394 549L393 548L391 546L390 545L390 545L389 545L388 545L387 545L386 545L385 544L385 543L384 543L383 542L381 542L380 542L379 542L378 542L377 542L376 541L375 541L373 541L372 541L371 540L371 540L370 540L369 541L368 540L367 540L366 541L365 541L364 540L363 540L362 541L361 540L360 540L359 540L359 540L357 539L356 539L354 539L354 538L353 538L352 537L351 537L350 536L349 536L349 536L348 536L348 537L347 538L347 539L346 540L346 540L345 540L344 540L343 540L342 539M383 542L383 542M338 559L338 560L339 561L340 562L341 563L342 563L343 564L343 564L344 565L344 566L345 566L345 567L345 568L345 569M345 569L344 569M354 597L354 597M401 547L401 547M342 539L340 540L339 540L338 541L338 542L338 543L337 544L336 545L336 546L336 547L336 548L337 548L337 549L337 550L338 550L339 552L339 552L340 553L339 554L340 555L340 556L340 557L339 558L338 559M345 569L345 569M344 569L344 570L345 571L345 572L345 573L345 574L346 575L348 576L349 577L350 577L351 578L352 577L352 578L353 578M354 578L353 578L353 578M354 578L354 579L355 580L355 581L354 581L354 583L354 584L355 585L355 585L356 586M356 586L356 587L357 587L357 588L358 589M358 589L357 590L357 591M357 591L357 591L356 592L356 592L354 594L353 594M353 596L353 595L354 596L354 596L354 597M353 596L354 597L354 597M354 597L354 597M354 597L354 598L354 599L354 600L354 601M354 596L354 596M399 332L399 333M311 361L311 361M382 319L382 318"/>
</svg>
